# 3ds Max Wavefront OBJ Exporter v0.97b - (c)2007 guruware
# File Created: 30.03.2017 00:09:07

mtllib camera.mtl

#
# object camera
#

v  21.235443 0.000000 8.325348
v  21.235443 0.000000 -8.325348
v  -21.235443 15.238487 8.325296
v  20.273972 14.436994 7.658438
v  -21.235443 15.238487 -8.325296
v  20.273972 14.436994 -7.658438
v  -10.698106 0.885654 7.226635
v  -20.585228 14.352833 7.226589
v  -20.585228 14.352833 -7.226589
v  -8.161345 0.885654 7.226635
v  -12.609648 14.352833 7.226589
v  -12.609648 14.352833 -7.226589
v  -8.392509 1.585502 6.489595
v  -12.378483 13.652985 6.489554
v  -12.378483 13.652985 -6.489554
v  -9.250846 2.000307 5.644569
v  -13.236819 12.895890 5.644533
v  -13.236819 12.895890 -5.644533
v  -12.886904 15.238487 8.325296
v  -12.886904 15.238487 -8.325296
v  -10.047890 0.000000 8.325348
v  -8.384670 9.360401 8.325316
v  -9.250846 2.000307 -5.644569
v  -8.392509 1.585502 -6.489595
v  -8.161345 0.885654 -7.226635
v  -10.698106 0.885654 -7.226635
v  -10.047890 0.000000 -8.325348
v  -8.384670 9.360401 -8.325316
v  21.235443 9.360401 -8.325316
v  21.235443 9.360401 8.325316
v  -11.661570 14.666813 -7.658437
v  -11.661570 14.666813 7.658437
v  -7.863245 9.707745 7.658454
v  20.273972 9.707745 7.658456
v  20.273972 9.707745 -7.658456
v  -7.863245 9.707745 -7.658454
# 36 vertices

vn 0.000000 1.000000 -0.000000
vn 1.000000 0.000000 -0.000000
vn 0.000000 0.000003 -1.000000
vn -0.806085 -0.591799 -0.000000
vn -0.806086 -0.591799 -0.000000
vn 0.000000 -1.000000 -0.000000
vn 0.000000 -0.000003 1.000000
vn -0.949542 -0.313641 -0.000000
vn -0.949542 -0.313640 -0.000000
vn -0.435120 -0.900373 -0.000000
vn -0.661493 0.749951 -0.000000
vn -0.659372 -0.228908 -0.716121
vn 0.007196 0.999974 -0.000000
vn 0.000000 0.000003 1.000000
vn -0.000000 0.000003 1.000000
vn -0.000000 0.000004 -1.000000
vn -0.939129 -0.343565 -0.000000
vn -0.806085 -0.591799 0.000000
vn 0.000000 -0.000003 -1.000000
vn -0.949542 -0.313640 0.000000
vn -0.659372 -0.228908 0.716121
vn -0.000000 0.000004 1.000000
vn -0.000000 0.000003 -1.000000
vn 0.422795 0.906225 -0.000000
vn 0.579179 0.443616 0.683928
vn -0.000000 0.886903 0.461955
vn 0.339770 0.940508 -0.000000
vn -0.000000 0.886903 -0.461955
vn 0.579179 0.443616 -0.683928
# 29 vertex normals

vt 0.357230 0.707410 0.000000
vt 0.271950 0.711381 0.000000
vt 0.154471 0.710655 0.000000
vt 0.239751 0.706685 0.000000
vt 0.752118 0.665224 0.000000
vt 0.752114 0.695398 0.000000
vt 0.837394 0.691427 0.000000
vt 0.837398 0.661253 0.000000
vt 0.215200 0.692082 0.000000
vt 0.335307 0.692824 0.000000
vt 0.521478 0.659302 0.000000
vt 0.382410 0.661595 0.000000
vt 0.222918 0.691181 0.000000
vt 0.169249 0.707595 0.000000
vt 0.243274 0.704148 0.000000
vt 0.418106 0.661816 0.000000
vt 0.305627 0.691691 0.000000
vt 0.281479 0.708288 0.000000
vt 0.355504 0.704841 0.000000
vt 0.245712 0.066385 0.000000
vt 0.773714 0.055556 0.000000
vt 0.746329 0.056472 0.000000
vt 0.272204 0.066175 0.000000
vt 0.751451 0.073149 0.000000
vt 0.237125 0.073171 0.000000
vt 0.264510 0.072256 0.000000
vt 0.726380 0.072236 0.000000
vt 0.269006 0.946621 0.000000
vt 0.730353 0.934959 0.000000
vt 0.696915 0.935602 0.000000
vt 0.294089 0.946127 0.000000
vt 0.710941 0.953904 0.000000
vt 0.261519 0.953928 0.000000
vt 0.286603 0.952723 0.000000
vt 0.677505 0.952702 0.000000
vt 0.254745 0.311298 0.000000
vt 0.645980 0.310540 0.000000
vt 0.731712 0.325799 0.000000
vt 0.340478 0.326557 0.000000
vt 0.420587 0.688853 0.000000
vt 0.254748 0.306993 0.000000
vt 0.645984 0.306235 0.000000
vt 0.721520 0.319495 0.000000
vt 0.330285 0.320253 0.000000
vt 0.482718 0.189702 0.000000
vt 0.130078 0.187643 0.000000
vt 0.157425 0.187116 0.000000
vt 0.481818 0.189010 0.000000
vt 0.178666 0.183340 0.000000
vt 0.198416 0.183485 0.000000
vt 0.498304 0.176152 0.000000
vt 0.502052 0.176657 0.000000
vt 0.850945 0.178211 0.000000
vt 0.826446 0.178551 0.000000
vt 0.531308 0.185399 0.000000
vt 0.522811 0.185379 0.000000
# 56 texture coords

g camera
usemtl Material__25
s off
f -18/-56/-29 -17/-55/-29 -32/-54/-29 -34/-53/-29 
f -35/-52/-28 -8/-51/-28 -7/-50/-28 -36/-49/-28 
f -10/-48/-27 -9/-47/-27 -8/-51/-27 -35/-52/-27 
f -10/-48/-26 -16/-46/-26 -30/-45/-26 -11/-44/-26 
f -34/-53/-25 -32/-54/-25 -28/-43/-25 -29/-42/-25 
f -10/-48/-26 -11/-44/-26 -28/-43/-26 -32/-54/-26 
f -11/-44/-29 -30/-45/-29 -27/-41/-29 -12/-40/-29 
f -29/-42/-24 -28/-43/-24 -25/-39/-24 -26/-38/-24 
f -11/-44/-23 -12/-40/-23 -25/-39/-23 -28/-43/-23 
f -12/-37/-22 -27/-36/-22 -24/-35/-22 -13/-34/-22 
f -26/-33/-22 -25/-32/-22 -22/-31/-22 -23/-30/-22 
f -12/-37/-21 -13/-34/-21 -22/-31/-21 -25/-32/-21 
f -13/-29/-20 -24/-28/-20 -21/-27/-20 -14/-26/-20 
f -23/-25/-19 -22/-24/-19 -19/-23/-19 -20/-22/-19 
f -13/-29/-18 -14/-26/-18 -19/-23/-18 -22/-24/-18 
f -35/-52/-24 -36/-49/-24 -16/-46/-24 -10/-48/-24 
f -33/-21/-17 -31/-20/-17 -6/-19/-17 -5/-18/-17 
f -16/-46/-16 -36/-49/-16 -7/-50/-16 -15/-17/-16 
f -18/-56/-15 -34/-53/-15 -16/-46/-15 -15/-17/-15 
f -31/-20/-28 -33/-21/-28 -3/-16/-28 -2/-15/-28 
f -1/-14/-14 -6/-19/-14 -31/-20/-14 -2/-15/-14 
f -20/-22/-13 -19/-23/-13 -14/-26/-13 -21/-27/-13 
f -16/-46/-12 -34/-53/-12 -29/-42/-12 -30/-45/-12 
f -30/-45/-11 -29/-42/-11 -26/-38/-11 -27/-41/-11 
f -27/-36/-10 -26/-33/-10 -23/-30/-10 -24/-35/-10 
f -24/-28/-9 -23/-25/-9 -20/-22/-9 -21/-27/-9 
f -33/-21/-8 -5/-18/-8 -4/-13/-8 -3/-16/-8 
f -10/-48/-7 -32/-54/-7 -17/-55/-7 -9/-47/-7 
f -17/-12/-6 -18/-11/-6 -5/-10/-6 -6/-9/-6 
f -18/-11/-5 -15/-8/-5 -4/-7/-5 -5/-10/-5 
f -15/-8/-4 -7/-6/-4 -3/-5/-4 -4/-7/-4 
f -7/-6/-3 -8/-4/-3 -2/-3/-3 -3/-5/-3 
f -8/-4/-2 -9/-2/-2 -1/-1/-2 -2/-3/-2 
f -9/-2/-1 -17/-12/-1 -6/-9/-1 -1/-1/-1 
# 34 polygons

